PathFileType	4	(X/Y/Z)	D:\TRACE\v60_Jaco2_6-2-23\JustArmDRS_Motion3_2-platform.trc
DataRate	CameraRate	NumFrames	NumMarkers	Units	OrigDataRate	OrigDataStartFrame	OrigNumFrames
100.00	100.00	      30	5	mm	100.00	1751	      7000
Frame#	Time	Left_Front			Right_Front			Left_Aft			Right_Aft			Post			
		X1	Y1	Z1	X2	Y2	Z2	X3	Y3	Z3	X4	Y4	Z4	X5	Y5	Z5	

1751	17.500	-804.53088	-26.34401	-659.03540	766.20630	-28.11626	-636.58508	-735.84821	35.35839	473.71609	678.97510	37.64114	579.11938	-8.17076	1252.24573	-1040.25793	
1752	17.510	-803.94489	-27.27353	-659.12006	766.70087	-29.12297	-636.70313	-735.35132	36.16301	473.12445	679.45996	38.16154	578.87115	-7.37643	1250.59985	-1042.59998	
1753	17.520	-803.24231	-28.67075	-659.00275	767.10303	-30.16759	-636.91663	-734.69751	36.68265	472.95502	680.19348	39.12761	578.53503	-6.49208	1249.13208	-1044.95789	
1754	17.530	-802.67291	-29.66331	-659.09540	767.77234	-31.18329	-637.00391	-734.38300	37.45116	472.70248	680.62006	39.95555	578.22797	-6.08575	1247.42981	-1047.17493	
1755	17.540	-802.18115	-30.46930	-659.52985	768.15515	-32.25378	-637.22571	-733.84332	38.04298	472.52185	681.05188	40.64170	578.00513	-5.70696	1245.80676	-1049.55359	
1756	17.550	-801.56018	-31.54961	-659.74786	768.69647	-33.22409	-637.50061	-733.33435	38.79629	472.36343	681.75085	41.60344	577.56354	-5.04361	1244.28809	-1051.62732	
1757	17.560	-801.20752	-32.64359	-660.11389	769.28137	-34.16273	-637.67664	-732.59174	39.47558	471.91885	682.11969	42.23857	577.50385	-4.24329	1242.73535	-1053.85620	
1758	17.570	-800.60681	-33.50158	-660.11182	769.81635	-35.16923	-637.81348	-732.01581	40.04214	471.50339	682.94049	43.08888	577.19049	-3.39798	1241.05249	-1055.96545	
1759	17.580	-799.59570	-34.26992	-660.06989	770.65637	-36.13675	-637.81207	-731.42499	40.67362	471.27335	683.47900	43.94648	576.86646	-3.20116	1239.35278	-1058.13245	
1760	17.590	-799.17493	-35.52070	-660.50879	771.24353	-37.12414	-637.91577	-730.72797	41.38021	471.18857	683.98907	44.67308	576.56647	-2.11597	1237.94373	-1059.87988	
1761	17.600	-798.67902	-36.70309	-660.57715	771.97260	-38.09236	-638.09857	-729.93665	42.03234	470.74106	685.21686	45.61910	576.32080	-1.76889	1236.43359	-1061.86377	
1762	17.610	-798.11334	-37.67339	-660.46594	772.69934	-39.13803	-638.33356	-729.45807	42.78868	470.56729	685.60638	45.89927	575.83893	-1.13224	1234.71497	-1063.87537	
1763	17.620	-796.97186	-38.75788	-660.84656	773.43396	-40.07879	-638.47510	-728.78638	43.28864	470.27029	686.33411	46.86129	575.72229	-0.40936	1232.94348	-1065.56165	
1764	17.630	-796.55615	-39.45325	-661.00885	774.09863	-41.09830	-638.62036	-728.03723	44.11679	469.98022	686.97290	47.68887	575.34369	0.18648	1231.27808	-1067.12598	
1765	17.640	-795.73999	-40.84610	-661.20264	774.76971	-42.05231	-638.77338	-727.36414	44.58452	469.63391	687.52539	48.44405	575.30249	1.25925	1229.99133	-1069.56140	
1766	17.650	-795.21674	-41.58258	-661.44727	775.58704	-43.03286	-638.95099	-726.43689	45.19748	469.52032	688.60016	49.43521	574.83508	1.96260	1228.49121	-1071.37073	
1767	17.660	-794.18640	-42.60647	-661.33307	776.20654	-43.89436	-639.02985	-725.69202	45.88491	469.33786	689.12354	49.64108	574.46008	2.42923	1226.79333	-1073.47461	
1768	17.670	-793.57214	-43.20960	-661.49445	776.97229	-44.74765	-639.26208	-725.14398	46.62173	468.96658	689.84570	50.32853	573.83813	3.16835	1225.07666	-1075.52161	
1769	17.680	-792.82672	-44.34534	-662.02679	777.83887	-45.73348	-639.38599	-724.25244	47.03222	468.61530	690.98383	51.46222	574.08905	4.26217	1223.91968	-1077.49207	
1770	17.690	-791.85437	-45.44426	-661.86115	778.62885	-46.70522	-639.47278	-723.32013	47.69664	468.38632	691.37878	51.76168	573.45367	4.94782	1222.42822	-1079.50635	
1771	17.700	-791.07703	-46.35015	-661.97260	779.60150	-47.56966	-639.46277	-722.62024	48.22425	468.11523	692.51312	52.95405	573.57562	5.83107	1220.60046	-1081.35010	
1772	17.710	-790.15521	-47.09302	-662.12042	780.39178	-48.37631	-639.56995	-721.79962	48.70314	468.01083	693.25903	53.58223	573.32062	7.07953	1219.51636	-1083.18384	
1773	17.720	-789.54510	-47.85321	-662.31018	781.25989	-49.28702	-639.75623	-720.82745	49.30130	467.61838	693.81189	54.15753	572.46979	7.80606	1217.82898	-1084.95703	
1774	17.730	-788.60504	-48.78778	-662.13208	782.26929	-50.09881	-639.98785	-720.00427	50.08462	467.31918	695.01208	55.01825	572.91949	8.19290	1216.67737	-1086.46741	
1775	17.740	-787.40076	-49.76616	-662.42133	783.12183	-50.93595	-640.12482	-719.05579	50.41555	467.22275	695.96704	55.64346	572.51776	9.54022	1215.22522	-1088.59155	
1776	17.750	-786.66614	-50.42072	-662.78259	783.79547	-51.82747	-640.22174	-718.15948	50.82596	467.03668	696.85712	56.40026	572.28687	10.46963	1213.93921	-1089.91394	
1777	17.760	-785.75085	-51.12136	-662.66223	784.59436	-52.58799	-640.37897	-717.13788	51.38419	466.85727	697.73828	56.83089	572.22620	11.61237	1212.62305	-1091.30359	
1778	17.770	-784.67792	-52.11129	-662.74744	785.78064	-53.37734	-640.43475	-716.23889	51.95308	466.36496	698.98901	57.51191	571.90320	12.43465	1211.41504	-1092.65088	
1779	17.780	-784.05103	-52.93687	-662.74463	786.62390	-54.16362	-640.36462	-715.30780	52.35872	466.31790	699.96094	58.32681	571.74445	13.22444	1209.87061	-1093.92700	
1780	17.790	-783.12390	-53.61794	-663.07513	787.54736	-54.85796	-640.52191	-714.21045	52.87373	466.29559	700.55365	58.58945	571.46405	14.17510	1209.00989	-1095.89429	
